<svg width="366" height="121" viewBox="0 0 366 121" fill="none" xmlns="http://www.w3.org/2000/svg">
<g clip-path="url(#clip0_3_21)">
<path d="M8.87305 75.054V60.2812L60.2935 38.6903V54.848L26.3446 67.5256L26.8773 66.7443V68.6264L26.3446 67.8097L60.2935 80.5227V96.6449L8.87305 75.054ZM108.101 20.8636L84.6632 107.938H69.8549L93.2924 20.8636H108.101ZM169.083 75.054L117.662 96.6449V80.5227L151.611 67.8097L151.114 68.6264V66.7443L151.611 67.5256L117.662 54.848V38.6903L169.083 60.2812V75.054Z" fill="black"/>
<path d="M210.594 71.1392V66.1392L230.594 57.3324V63.0852L216.901 68.5824L217.085 68.2841V68.9943L216.901 68.696L230.594 74.1932V79.946L210.594 71.1392ZM262.384 64.0938H256.162C256.048 63.2888 255.816 62.5739 255.466 61.9489C255.116 61.3144 254.666 60.7746 254.116 60.3295C253.567 59.8845 252.933 59.5436 252.213 59.3068C251.503 59.0701 250.731 58.9517 249.898 58.9517C248.392 58.9517 247.08 59.3258 245.963 60.0739C244.846 60.8125 243.979 61.892 243.364 63.3125C242.748 64.7235 242.44 66.4375 242.44 68.4545C242.44 70.5284 242.748 72.2708 243.364 73.6818C243.989 75.0928 244.86 76.1581 245.977 76.8778C247.095 77.5975 248.387 77.9574 249.855 77.9574C250.679 77.9574 251.441 77.8485 252.142 77.6307C252.852 77.4129 253.482 77.0956 254.031 76.679C254.58 76.2528 255.035 75.7367 255.395 75.1307C255.764 74.5246 256.02 73.8333 256.162 73.0568L262.384 73.0852C262.223 74.4205 261.82 75.7083 261.176 76.9489C260.542 78.1799 259.685 79.2831 258.605 80.2585C257.535 81.2244 256.257 81.9915 254.77 82.5597C253.293 83.1184 251.621 83.3977 249.756 83.3977C247.161 83.3977 244.841 82.8106 242.795 81.6364C240.759 80.4621 239.15 78.7623 237.966 76.5369C236.792 74.3116 236.205 71.6174 236.205 68.4545C236.205 65.2822 236.801 62.5833 237.994 60.358C239.188 58.1326 240.807 56.4375 242.852 55.2727C244.898 54.0985 247.199 53.5114 249.756 53.5114C251.441 53.5114 253.004 53.7481 254.443 54.2216C255.892 54.6951 257.175 55.3864 258.293 56.2955C259.41 57.1951 260.319 58.2983 261.02 59.6051C261.73 60.9119 262.185 62.4081 262.384 64.0938ZM276.538 83.4261C274.332 83.4261 272.424 82.9574 270.814 82.0199C269.214 81.0729 267.978 79.7566 267.107 78.071C266.235 76.3759 265.8 74.411 265.8 72.1761C265.8 69.9223 266.235 67.9527 267.107 66.267C267.978 64.572 269.214 63.2557 270.814 62.3182C272.424 61.3712 274.332 60.8977 276.538 60.8977C278.745 60.8977 280.648 61.3712 282.249 62.3182C283.858 63.2557 285.099 64.572 285.97 66.267C286.841 67.9527 287.277 69.9223 287.277 72.1761C287.277 74.411 286.841 76.3759 285.97 78.071C285.099 79.7566 283.858 81.0729 282.249 82.0199C280.648 82.9574 278.745 83.4261 276.538 83.4261ZM276.567 78.7386C277.571 78.7386 278.409 78.4545 279.081 77.8864C279.753 77.3087 280.26 76.5227 280.601 75.5284C280.951 74.5341 281.126 73.4025 281.126 72.1335C281.126 70.8646 280.951 69.733 280.601 68.7386C280.26 67.7443 279.753 66.9583 279.081 66.3807C278.409 65.803 277.571 65.5142 276.567 65.5142C275.554 65.5142 274.701 65.803 274.01 66.3807C273.328 66.9583 272.812 67.7443 272.462 68.7386C272.121 69.733 271.95 70.8646 271.95 72.1335C271.95 73.4025 272.121 74.5341 272.462 75.5284C272.812 76.5227 273.328 77.3087 274.01 77.8864C274.701 78.4545 275.554 78.7386 276.567 78.7386ZM299.251 83.3551C297.594 83.3551 296.093 82.929 294.749 82.0767C293.413 81.215 292.353 79.9508 291.567 78.2841C290.79 76.608 290.402 74.553 290.402 72.1193C290.402 69.6193 290.804 67.5407 291.609 65.8835C292.414 64.2169 293.484 62.9716 294.82 62.1477C296.164 61.3144 297.637 60.8977 299.237 60.8977C300.459 60.8977 301.477 61.1061 302.291 61.5227C303.115 61.9299 303.778 62.4413 304.28 63.0568C304.791 63.6629 305.179 64.2595 305.445 64.8466H305.629V53.9091H311.666V83H305.7V79.5057H305.445C305.161 80.1117 304.758 80.7131 304.237 81.3097C303.726 81.8968 303.058 82.3845 302.234 82.7727C301.42 83.161 300.426 83.3551 299.251 83.3551ZM301.169 78.5398C302.144 78.5398 302.968 78.2746 303.641 77.7443C304.322 77.2045 304.843 76.4517 305.203 75.4858C305.572 74.5199 305.757 73.3883 305.757 72.0909C305.757 70.7936 305.577 69.6667 305.217 68.7102C304.857 67.7538 304.337 67.0152 303.655 66.4943C302.973 65.9735 302.144 65.7131 301.169 65.7131C300.175 65.7131 299.337 65.983 298.655 66.5227C297.973 67.0625 297.457 67.8106 297.107 68.767C296.756 69.7235 296.581 70.8314 296.581 72.0909C296.581 73.3598 296.756 74.482 297.107 75.4574C297.466 76.4233 297.982 77.1809 298.655 77.7301C299.337 78.2699 300.175 78.5398 301.169 78.5398ZM326.585 83.4261C324.34 83.4261 322.408 82.9716 320.789 82.0625C319.179 81.1439 317.939 79.8466 317.067 78.1705C316.196 76.4848 315.761 74.4915 315.761 72.1903C315.761 69.946 316.196 67.9763 317.067 66.2812C317.939 64.5862 319.165 63.2652 320.746 62.3182C322.337 61.3712 324.203 60.8977 326.343 60.8977C327.782 60.8977 329.122 61.1297 330.363 61.5938C331.613 62.0483 332.702 62.7348 333.63 63.6534C334.567 64.572 335.297 65.7273 335.817 67.1193C336.338 68.5019 336.599 70.1212 336.599 71.9773V73.6392H318.175V69.8892H330.903C330.903 69.018 330.713 68.2462 330.335 67.5739C329.956 66.9015 329.43 66.3759 328.758 65.9972C328.095 65.6089 327.323 65.4148 326.442 65.4148C325.524 65.4148 324.71 65.6278 323.999 66.054C323.299 66.4706 322.749 67.0341 322.352 67.7443C321.954 68.4451 321.75 69.2263 321.741 70.0881V73.6534C321.741 74.733 321.94 75.6657 322.337 76.4517C322.745 77.2377 323.317 77.8438 324.056 78.2699C324.795 78.696 325.671 78.9091 326.684 78.9091C327.356 78.9091 327.972 78.8144 328.531 78.625C329.089 78.4356 329.567 78.1515 329.965 77.7727C330.363 77.3939 330.666 76.9299 330.874 76.3807L336.471 76.75C336.187 78.0947 335.604 79.2689 334.724 80.2727C333.853 81.267 332.726 82.0436 331.343 82.6023C329.97 83.1515 328.384 83.4261 326.585 83.4261ZM361.727 73.8665L341.727 82.6733V76.9205L355.42 71.4233L355.235 71.7216V71.0114L355.42 71.3097L341.727 65.8125V60.0597L361.727 68.8665V73.8665Z" fill="black"/>
<g filter="url(#filter0_d_3_21)">
<line x1="190.5" y1="121" x2="190.5" y2="4" stroke="url(#paint0_linear_3_21)" stroke-width="5"/>
</g>
</g>
<defs>
<filter id="filter0_d_3_21" x="184" y="4" width="13" height="125" filterUnits="userSpaceOnUse" color-interpolation-filters="sRGB">
<feFlood flood-opacity="0" result="BackgroundImageFix"/>
<feColorMatrix in="SourceAlpha" type="matrix" values="0 0 0 0 0 0 0 0 0 0 0 0 0 0 0 0 0 0 127 0" result="hardAlpha"/>
<feOffset dy="4"/>
<feGaussianBlur stdDeviation="2"/>
<feComposite in2="hardAlpha" operator="out"/>
<feColorMatrix type="matrix" values="0 0 0 0 0 0 0 0 0 0 0 0 0 0 0 0 0 0 0.25 0"/>
<feBlend mode="normal" in2="BackgroundImageFix" result="effect1_dropShadow_3_21"/>
<feBlend mode="normal" in="SourceGraphic" in2="effect1_dropShadow_3_21" result="shape"/>
</filter>
<linearGradient id="paint0_linear_3_21" x1="193.5" y1="121" x2="193.5" y2="4" gradientUnits="userSpaceOnUse">
<stop stop-color="#004AAD"/>
<stop offset="1" stop-color="#CB6CEC"/>
</linearGradient>
<clipPath id="clip0_3_21">
<rect width="366" height="121" fill="white"/>
</clipPath>
</defs>
</svg>
